/* XPM */
static char *c0300d33612d49c8dd24931fca73bfa2aqhYLjcvR09rnwsN[] = {
/* columns rows colors chars-per-pixel */
"16 16 9 1 ",
"  c black",
". c #4D3533",
"X c #63413D",
"o c #514047",
"O c #704844",
"+ c #77514C",
"@ c #8D5D57",
"# c #898989",
"$ c #A4A4A4",
/* pixels */
"o+++        ++oo",
"++  OOOOOOOO  @o",
"+ $XOOOOOOOOX# o",
" $$XOOOOOOOOX## ",
" $$XOOOOOOOOX## ",
" ##XOOOOOOOOX$$ ",
" ##XOOOOOOOOX$$ ",
" ##XXOOOOOOXX$$ ",
" $$XXXX$$XXXX$$ ",
" #####$$$$##### ",
" ##..O$  $O..## ",
" ##.OOO$$OOO.## ",
" ##.OOOOOOOO.## ",
" ##.OOOOOOOO.## ",
" ##..OOOOOO..## ",
"o              o"
};
