/* XPM */
static char * knight_idle_anim_f1_xpm[] = {
"16 16 11 1",
" 	c None",
".	c #514047",
"+	c #77514C",
"@	c #060608",
"#	c #AC3232",
"$	c #8D5D57",
"%	c #847E87",
"&	c #9BADB7",
"*	c #FFFFFF",
"=	c #59413E",
"-	c #DF7126",
".++++@@@.+++++..",
"+++++@##@+++++$.",
"++++++@%@@@@++$.",
"+++++@%%&&&&@+$.",
"++++@%&&&&&&@+$.",
"++++@&&*****@$$.",
"=$$$@&&*@@@@@$=.",
".===@%&***@*@=..",
".+++@@%%##-#@+..",
"+++++@##%%%%@+$.",
"++++#@%%&&&&@+$.",
"+++##@%%@@@%@+$.",
"+++##@%@#@%@++$.",
"+++++@@.+@@++$$.",
"=$$$$$=.=$$$$$=.",
".=====...=====.."};
