/* XPM */
static char * knight_idle_anim_f2_xpm[] = {
"16 16 11 1",
" 	c None",
".	c #514047",
"+	c #77514C",
"@	c #060608",
"#	c #8D5D57",
"$	c #AC3232",
"%	c #847E87",
"&	c #9BADB7",
"*	c #59413E",
"=	c #FFFFFF",
"-	c #DF7126",
".+++++...+++++..",
"+++++@@@++++++#.",
"+++++@$$@+++++#.",
"++++++@%@@@@++#.",
"+++++@%%&&&&@+#.",
"++++@%&&&&&&@##.",
"*###@&&=====@#*.",
".***@&&=@@@@@*..",
".+++@%&===@=@+..",
"++++@@$$$$-$@+#.",
"+++++@%%%%%%@+#.",
"++++$@%%@@@%@+#.",
"+++$$@%@$@%@++#.",
"+++++@@.+@@++##.",
"*#####*.*#####*.",
".*****...*****.."};
