/* XPM */
static char * knight_run_anim_f2_xpm[] = {
"16 16 12 1",
" 	c None",
".	c #514047",
"+	c #77514C",
"@	c #8D5D57",
"#	c #060608",
"$	c #AC3232",
"%	c #847E87",
"&	c #9BADB7",
"*	c #FFFFFF",
"=	c #59413E",
"-	c #DF7126",
";	c #040406",
".+++++...+++++..",
"++++++@#++++++@.",
"+++++##$#+++++@.",
"+++++#$%####++@.",
"+++++#%%&&&&#+@.",
"++++#%&*****#@@.",
"=@@@#&&*#####@=.",
".===#&&***#*#=..",
".+++#%&&&***#+..",
"+++++#%%$$-$#+@.",
"++++$#$$%%%%#+@.",
"++$$#%%&&&&&#+@.",
"+++$#######%;+@.",
"+++++@@.+++;;@@.",
"=@@@@@=.=@@@@@=.",
".=====...=====.."};
