/* XPM */
static char * slime_run_anim_f3_xpm[] = {
"16 16 10 1",
" 	c None",
".	c #514047",
"+	c #77514C",
"@	c #8D5D57",
"#	c #000000",
"$	c #59413E",
"%	c #33703B",
"&	c #3E8948",
"*	c #62B76D",
"=	c #37773F",
".+++++...+++++..",
"++++++@.++++++@.",
"++++++@.++++++@.",
"++++++@.++++++@.",
"++++++@.++++++@.",
"+++++######++@@.",
"$@@##%&&&&%##@$.",
".$#%%&&&&&&%%#..",
".#%&**&&&&&&&%#.",
"#%&**======##&%#",
"#&====##===##=&#",
"#%====##======%#",
"+#%%========%%#.",
"++##%======%##@.",
"$@@@########@@$.",
".$$$$$...$$$$$.."};
