/* XPM */
static char * weapon_sword_1_xpm[] = {
"16 16 11 1",
" 	c None",
".	c #514047",
"+	c #77514C",
"@	c #8D5D57",
"#	c #000000",
"$	c #FFFFFF",
"%	c #CBDBFC",
"&	c #59413E",
"*	c #8F563B",
"=	c #5FCDE4",
"-	c #663931",
".+++++...+++++..",
"++++++@.++++++@.",
"++++++@.++####@.",
"++++++@.+#$$$#@.",
"++++++@.#$%%$#@.",
"+++++@@#$%%%$#@.",
"&@@@@@#$%%%$#@&.",
".&&&&#$%%%$#&&..",
".+###$%%%$#+++..",
"++#*$%%%$#++++@.",
"+++#*==$#+++++@.",
"++#*-*$#++++++@.",
"+#*-##*#++++++@.",
"+###+@##+++++@@.",
"&@@@@@&.&@@@@@&.",
".&&&&&...&&&&&.."};
